<?xml version="1.0" encoding="utf-8"?>
<svg viewBox="0 0 625 625" height="625" width="625" version="1.1" id="svg2" xmlns="http://www.w3.org/2000/svg">
  <defs id="defs6">
    <clipPath id="clipPath18" clipPathUnits="userSpaceOnUse">
      <path id="path20" d="M 0,500 500,500 500,0 0,0 0,500 Z"/>
    </clipPath>
  </defs>
  <g transform="matrix(1.25,0,0,-1.25,0,625)" id="g10">
    <g id="g14">
      <g clip-path="url(#clipPath18)" id="g16">
        <g transform="translate(463,249)" id="g22">
          <path id="path24" style="fill:#40b7ad;fill-opacity:1;fill-rule:nonzero;stroke:none" d="m 0,0 c 0,-117.084 -94.916,-212 -212,-212 -117.084,0 -212,94.916 -212,212 0,117.084 94.916,212 212,212 C -94.916,212 0,117.084 0,0"/>
        </g>
        <g transform="translate(311.7676,251)" id="g26">
          <path id="path28" style="fill:#379d8f;fill-opacity:1;fill-rule:nonzero;stroke:none" d="m 0,0 c 0,48.601 -46.115,88 -103,88 -56.886,0 -103,-39.399 -103,-88 0,-41.563 33.726,-76.39 79.071,-85.607 l 0,-25.518 41.785,24.125 -0.447,0.258 C -36.997,-79.673 0,-43.53 0,0"/>
        </g>
        <g transform="translate(404.2324,251)" id="g30">
          <path id="path32" style="fill:#379d8f;fill-opacity:1;fill-rule:nonzero;stroke:none" d="m 0,0 c 0,43.63 -41.397,79 -92.465,79 -12.116,0 -23.685,-1.994 -34.289,-5.614 25.167,-17.222 41.289,-43.694 41.289,-73.386 0,-29.692 -16.122,-56.163 -41.289,-73.387 10.177,-3.473 21.248,-5.429 32.833,-5.583 l -0.052,-0.03 29.609,-17.094 0,20.814 C -27.038,-65.118 0,-35.259 0,0"/>
        </g>
        <g transform="translate(303.7676,249)" id="g34">
          <path id="path36" style="fill:#ffffff;fill-opacity:1;fill-rule:nonzero;stroke:none" d="m 0,0 c 0,48.601 -46.115,88 -103,88 -56.886,0 -103,-39.399 -103,-88 0,-41.563 33.727,-76.39 79.071,-85.607 l 0,-25.518 41.785,24.125 -0.447,0.258 C -36.997,-79.673 0,-43.53 0,0"/>
        </g>
        <g transform="translate(396.2324,249)" id="g38">
          <path id="path40" style="fill:#ffffff;fill-opacity:1;fill-rule:nonzero;stroke:none" d="m 0,0 c 0,43.63 -41.397,79 -92.465,79 -12.116,0 -23.685,-1.994 -34.289,-5.614 25.167,-17.222 41.289,-43.694 41.289,-73.386 0,-29.692 -16.122,-56.163 -41.289,-73.387 10.177,-3.473 21.248,-5.429 32.833,-5.583 l -0.052,-0.03 29.609,-17.094 0,20.814 C -27.038,-65.118 0,-35.259 0,0"/>
        </g>
        <g transform="translate(164.7671,219.25)" id="g42">
          <path id="path44" style="fill:#40b7ad;fill-opacity:1;fill-rule:nonzero;stroke:none" d="m 0,0 c 0,-5.937 -4.813,-10.75 -10.75,-10.75 -5.937,0 -10.75,4.813 -10.75,10.75 0,5.937 4.813,10.75 10.75,10.75 C -4.813,10.75 0,5.937 0,0"/>
        </g>
        <g transform="translate(161.8359,220.3066)" id="g46">
          <path id="path48" style="fill:#ffffff;fill-opacity:1;fill-rule:nonzero;stroke:none" d="M 0,0 C -0.444,0 -0.849,0.297 -0.967,0.746 -1.581,3.089 -3.4,4.99 -5.715,5.709 -6.243,5.873 -6.537,6.434 -6.374,6.961 -6.209,7.489 -5.647,7.781 -5.122,7.619 -2.153,6.697 0.18,4.258 0.968,1.254 1.108,0.72 0.789,0.173 0.254,0.032 0.169,0.011 0.084,0 0,0"/>
        </g>
        <g transform="translate(211.1836,219.25)" id="g50">
          <path id="path52" style="fill:#40b7ad;fill-opacity:1;fill-rule:nonzero;stroke:none" d="m 0,0 c 0,-5.937 -4.813,-10.75 -10.75,-10.75 -5.937,0 -10.75,4.813 -10.75,10.75 0,5.937 4.813,10.75 10.75,10.75 C -4.813,10.75 0,5.937 0,0"/>
        </g>
        <g transform="translate(208.2524,220.3066)" id="g54">
          <path id="path56" style="fill:#ffffff;fill-opacity:1;fill-rule:nonzero;stroke:none" d="M 0,0 C -0.444,0 -0.849,0.297 -0.967,0.746 -1.581,3.089 -3.4,4.99 -5.715,5.709 -6.243,5.873 -6.537,6.434 -6.374,6.961 -6.209,7.489 -5.647,7.781 -5.122,7.619 -2.153,6.697 0.18,4.258 0.968,1.254 1.108,0.72 0.789,0.173 0.254,0.032 0.169,0.011 0.084,0 0,0"/>
        </g>
        <g transform="translate(257.6006,219.25)" id="g58">
          <path id="path60" style="fill:#40b7ad;fill-opacity:1;fill-rule:nonzero;stroke:none" d="m 0,0 c 0,-5.937 -4.813,-10.75 -10.75,-10.75 -5.937,0 -10.75,4.813 -10.75,10.75 0,5.937 4.813,10.75 10.75,10.75 C -4.813,10.75 0,5.937 0,0"/>
        </g>
        <g transform="translate(254.6689,220.3066)" id="g62">
          <path id="path64" style="fill:#ffffff;fill-opacity:1;fill-rule:nonzero;stroke:none" d="M 0,0 C -0.443,0 -0.849,0.297 -0.967,0.746 -1.581,3.089 -3.4,4.99 -5.714,5.709 -6.242,5.873 -6.537,6.434 -6.373,6.961 -6.209,7.489 -5.646,7.781 -5.122,7.619 -2.153,6.697 0.181,4.258 0.968,1.254 1.108,0.72 0.789,0.173 0.254,0.032 0.169,0.011 0.084,0 0,0"/>
        </g>
      </g>
    </g>
  </g>
</svg>